<?xml version="1.0" encoding="utf-8"?>
<!-- Generator: Adobe Illustrator 22.0.0, SVG Export Plug-In . SVG Version: 6.00 Build 0)  -->
<svg version="1.1" id="Layer_1" xmlns="http://www.w3.org/2000/svg" xmlns:xlink="http://www.w3.org/1999/xlink" x="0px" y="0px"
	 viewBox="0 0 1000 1000" style="enable-background:new 0 0 1000 1000;" xml:space="preserve">
<style type="text/css">
	.st0{fill:#525252;}
</style>
<g>
	<path class="st0" d="M48.7,346.1c45.1,23.8,90.2,47.6,135.3,71.3c-0.1,0.4-0.1,0.8-0.3,0.9c-45,23.7-90,47.4-135,71.2
		C48.7,441.7,48.7,393.9,48.7,346.1z"/>
	<path class="st0" d="M184.2,417.6c0,48.5,0,96.2,0,144.5c-45.4-24.1-90.3-47.9-136.1-72.2C93.6,465.7,138.6,441.8,184.2,417.6z"/>
	<path class="st0" d="M49.3,505.6c45.1,23.8,90.2,47.6,135.3,71.3c-0.1,0.4-0.1,0.8-0.3,0.9c-45,23.7-90,47.4-135,71.2
		C49.3,601.2,49.3,553.4,49.3,505.6z"/>
	<path class="st0" d="M184.7,577.1c0,48.5,0,96.2,0,144.5c-45.4-24.1-90.3-47.9-136.1-72.2C94.1,625.2,139.1,601.3,184.7,577.1z"/>
	<path class="st0" d="M338,184.3c45.1,23.8,90.3,47.7,135.4,71.5c-0.1,0.4-0.1,0.8-0.3,0.9c-45,23.8-90.1,47.6-135.1,71.3
		C338,280.1,338,232.2,338,184.3z"/>
	<path class="st0" d="M338,184.4c0,48.1,0,95.6,0,143.6c-45.2-23.9-89.9-47.6-135.4-71.8C247.9,232.2,292.6,208.5,338,184.4z"/>
	<path class="st0" d="M188.9,263.1c45.1,23.8,90.3,47.7,135.4,71.5c-0.1,0.4-0.1,0.8-0.3,0.9c-45,23.8-90.1,47.6-135.1,71.3
		C188.9,358.9,188.9,311,188.9,263.1z"/>
	<path class="st0" d="M188.9,263.2c0,48.1,0,95.6,0,143.6C143.7,382.9,99,359.2,53.4,335C98.7,311,143.5,287.3,188.9,263.2z"/>
	<path class="st0" d="M200.6,581.4c45.1,23.8,90.2,47.6,135.3,71.3c-0.1,0.4-0.1,0.8-0.3,0.9c-45,23.7-90,47.4-135,71.2
		C200.6,677,200.6,629.2,200.6,581.4z"/>
	<path class="st0" d="M336,652.9c0,48.5,0,96.2,0,144.5c-45.4-24.1-90.3-47.9-136.1-72.2C245.4,701,290.4,677.1,336,652.9z"/>
	<path class="st0" d="M353.2,796.1c45.1-23.8,90.2-47.6,135.3-71.3c-0.1-0.4-0.1-0.8-0.3-0.9c-45-23.7-90-47.4-135-71.2
		C353.2,700.5,353.2,748.3,353.2,796.1z"/>
	<path class="st0" d="M488.7,724.6c0-48.5,0-96.2,0-144.5c-45.4,24.1-90.3,47.9-136.1,72.2C398.1,676.5,443.1,700.4,488.7,724.6z"/>
	<path class="st0" d="M353.8,636.6c45.1-23.8,90.2-47.6,135.3-71.3c-0.1-0.4-0.1-0.8-0.3-0.9c-45-23.7-90-47.4-135-71.2
		C353.8,541,353.8,588.8,353.8,636.6z"/>
	<path class="st0" d="M489.2,565.1c0-48.5,0-96.2,0-144.5c-45.4,24.1-90.3,47.9-136.1,72.2C398.6,516.9,443.6,540.8,489.2,565.1z"/>
	<path class="st0" d="M533.6,266.2c45.1,23.8,90.2,47.6,135.3,71.3c-0.1,0.4-0.1,0.8-0.3,0.9c-45,23.7-90,47.4-135,71.2
		C533.6,361.8,533.6,314,533.6,266.2z"/>
	<path class="st0" d="M669,337.7c0,48.5,0,96.2,0,144.5c-45.4-24.1-90.3-47.9-136.1-72.2C578.5,385.8,623.4,361.9,669,337.7z"/>
	<path class="st0" d="M534.1,422.4c45.1,23.8,90.2,47.6,135.3,71.3c-0.1,0.4-0.1,0.8-0.3,0.9c-45,23.7-90,47.4-135,71.2
		C534.1,518,534.1,470.2,534.1,422.4z"/>
	<path class="st0" d="M669.6,493.9c0,48.5,0,96.2,0,144.5c-45.4-24.1-90.3-47.9-136.1-72.2C579,542,624,518.1,669.6,493.9z"/>
	<path class="st0" d="M532.3,577.9c45.1,23.8,90.2,47.6,135.3,71.3c-0.1,0.4-0.1,0.8-0.3,0.9c-45,23.7-90,47.4-135,71.2
		C532.3,673.6,532.3,625.7,532.3,577.9z"/>
	<path class="st0" d="M667.7,649.4c0,48.5,0,96.2,0,144.5c-45.4-24.1-90.3-47.9-136.1-72.2C577.1,697.6,622.1,673.7,667.7,649.4z"/>
	<path class="st0" d="M963.1,193c-45.1,23.8-90.2,47.6-135.3,71.3c0.1,0.4,0.1,0.8,0.3,0.9c45,23.7,90,47.4,135,71.2
		C963.1,288.6,963.1,240.8,963.1,193z"/>
	<path class="st0" d="M827.6,264.5c0,48.5,0,96.2,0,144.5c45.4-24.1,90.3-47.9,136.1-72.2C918.2,312.6,873.2,288.7,827.6,264.5z"/>
	<path class="st0" d="M962.5,349.2c-45.1,23.8-90.2,47.6-135.3,71.3c0.1,0.4,0.1,0.8,0.3,0.9c45,23.7,90,47.4,135,71.2
		C962.5,444.8,962.5,397,962.5,349.2z"/>
	<path class="st0" d="M827.3,420.7c0,48.5,0,96.2,0,144.5c45.4-24.1,90.3-47.9,136.1-72.2C917.9,468.8,872.9,444.9,827.3,420.7z"/>
	<path class="st0" d="M964.4,504.7c-45.1,23.8-90.2,47.6-135.3,71.3c0.1,0.4,0.1,0.8,0.3,0.9c45,23.7,90,47.4,135,71.2
		C964.4,600.3,964.4,552.5,964.4,504.7z"/>
	<path class="st0" d="M829,576.2c0,48.5,0,96.2,0,144.5c45.4-24.1,90.3-47.9,136.1-72.2C919.6,624.3,874.6,600.4,829,576.2z"/>
	<path class="st0" d="M681.6,636.4c45.1-23.8,90.2-47.6,135.3-71.3c-0.1-0.4-0.1-0.8-0.3-0.9c-45-23.7-90-47.4-135-71.2
		C681.6,540.8,681.6,588.6,681.6,636.4z"/>
	<path class="st0" d="M817.1,566.5c0-48.5,0-96.2,0-144.5c-45.4,24.1-90.3,47.9-136.1,72.2C726.5,518.4,771.5,542.3,817.1,566.5z"/>
</g>
</svg>
