<?xml version="1.0" encoding="utf-8"?>
<!-- Generator: Adobe Illustrator 22.0.0, SVG Export Plug-In . SVG Version: 6.00 Build 0)  -->
<svg version="1.1" id="Layer_1" xmlns="http://www.w3.org/2000/svg" xmlns:xlink="http://www.w3.org/1999/xlink" x="0px" y="0px"
	 viewBox="0 0 1000 1000" style="enable-background:new 0 0 1000 1000;" xml:space="preserve">
<style type="text/css">
	.st0{fill:#7DC141;}
</style>
<g>
	<path class="st0" d="M85.4,378.1c40.6,21.4,81.3,42.9,121.9,64.3c-0.1,0.4-0.1,0.7-0.3,0.8c-40.5,21.4-81.1,42.7-121.6,64.1
		C85.4,464.2,85.4,421.1,85.4,378.1z"/>
	<path class="st0" d="M207.4,442.5c0,43.6,0,86.6,0,130.2c-40.9-21.7-81.4-43.2-122.6-65C125.8,485.8,166.3,464.3,207.4,442.5z"/>
	<path class="st0" d="M85.8,521.8c40.6,21.4,81.3,42.9,121.9,64.3c-0.1,0.4-0.1,0.7-0.3,0.8c-40.5,21.4-81.1,42.7-121.6,64.1
		C85.8,607.9,85.8,564.8,85.8,521.8z"/>
	<path class="st0" d="M207.8,586.2c0,43.6,0,86.6,0,130.2c-40.9-21.7-81.4-43.2-122.6-65C126.2,629.5,166.8,608,207.8,586.2z"/>
	<path class="st0" d="M345.9,232.3c40.7,21.5,81.3,42.9,122,64.4c-0.1,0.4-0.1,0.7-0.3,0.8c-40.6,21.4-81.1,42.8-121.7,64.2
		C345.9,318.6,345.9,275.5,345.9,232.3z"/>
	<path class="st0" d="M345.9,232.4c0,43.4,0,86.1,0,129.4c-40.7-21.5-81-42.9-122-64.6C264.7,275.5,305.1,254.1,345.9,232.4z"/>
	<path class="st0" d="M211.6,303.3c40.7,21.5,81.3,42.9,122,64.4c-0.1,0.4-0.1,0.7-0.3,0.8c-40.6,21.4-81.1,42.8-121.7,64.2
		C211.6,389.6,211.6,346.5,211.6,303.3z"/>
	<path class="st0" d="M211.6,303.4c0,43.4,0,86.1,0,129.4c-40.7-21.5-81-42.9-122-64.6C130.4,346.5,170.7,325.1,211.6,303.4z"/>
	<path class="st0" d="M222.2,590.1c40.6,21.4,81.3,42.9,121.9,64.3c-0.1,0.4-0.1,0.7-0.3,0.8c-40.5,21.4-81.1,42.7-121.6,64.1
		C222.2,676.2,222.2,633.1,222.2,590.1z"/>
	<path class="st0" d="M344.2,654.5c0,43.6,0,86.6,0,130.2c-40.9-21.7-81.4-43.2-122.6-65C262.6,697.8,303.1,676.3,344.2,654.5z"/>
	<path class="st0" d="M359.7,783.5c40.6-21.4,81.3-42.9,121.9-64.3c-0.1-0.4-0.1-0.7-0.3-0.8c-40.5-21.4-81.1-42.7-121.6-64.1
		C359.7,697.3,359.7,740.4,359.7,783.5z"/>
	<path class="st0" d="M481.7,719c0-43.6,0-86.6,0-130.2c-40.9,21.7-81.4,43.2-122.6,65C400.1,675.7,440.6,697.2,481.7,719z"/>
	<path class="st0" d="M360.1,639.7c40.6-21.4,81.3-42.9,121.9-64.3c-0.1-0.4-0.1-0.7-0.3-0.8c-40.5-21.4-81.1-42.7-121.6-64.1
		C360.1,553.6,360.1,596.7,360.1,639.7z"/>
	<path class="st0" d="M482.1,575.3c0-43.6,0-86.6,0-130.2c-40.9,21.7-81.4,43.2-122.6,65C400.5,532,441.1,553.5,482.1,575.3z"/>
	<path class="st0" d="M522.2,306.1c40.6,21.4,81.3,42.9,121.9,64.3c-0.1,0.4-0.1,0.7-0.3,0.8c-40.5,21.4-81.1,42.7-121.6,64.1
		C522.2,392.2,522.2,349.2,522.2,306.1z"/>
	<path class="st0" d="M644.2,370.5c0,43.6,0,86.6,0,130.2c-40.9-21.7-81.4-43.2-122.6-65C562.5,413.9,603.1,392.3,644.2,370.5z"/>
	<path class="st0" d="M522.6,446.8c40.6,21.4,81.3,42.9,121.9,64.3c-0.1,0.4-0.1,0.7-0.3,0.8c-40.5,21.4-81.1,42.7-121.6,64.1
		C522.6,533,522.6,489.9,522.6,446.8z"/>
	<path class="st0" d="M644.6,511.2c0,43.6,0,86.6,0,130.2c-40.9-21.7-81.4-43.2-122.6-65C563,554.6,603.6,533.1,644.6,511.2z"/>
	<path class="st0" d="M520.9,586.9c40.6,21.4,81.3,42.9,121.9,64.3c-0.1,0.4-0.1,0.7-0.3,0.8c-40.5,21.4-81.1,42.7-121.6,64.1
		C520.9,673.1,520.9,630,520.9,586.9z"/>
	<path class="st0" d="M642.9,651.3c0,43.6,0,86.6,0,130.2c-40.9-21.7-81.4-43.2-122.6-65C561.3,694.7,601.9,673.2,642.9,651.3z"/>
	<path class="st0" d="M909,240.1c-40.6,21.4-81.3,42.9-121.9,64.3c0.1,0.4,0.1,0.7,0.3,0.8c40.5,21.4,81.1,42.7,121.6,64.1
		C909,326.3,909,283.2,909,240.1z"/>
	<path class="st0" d="M787,304.5c0,43.6,0,86.6,0,130.2c40.9-21.7,81.4-43.2,122.6-65C868.6,347.9,828.1,326.4,787,304.5z"/>
	<path class="st0" d="M908.5,380.9c-40.6,21.4-81.3,42.9-121.9,64.3c0.1,0.4,0.1,0.7,0.3,0.8c40.5,21.4,81.1,42.7,121.6,64.1
		C908.5,467,908.5,423.9,908.5,380.9z"/>
	<path class="st0" d="M786.7,445.3c0,43.6,0,86.6,0,130.2c40.9-21.7,81.4-43.2,122.6-65C868.4,488.6,827.8,467.1,786.7,445.3z"/>
	<path class="st0" d="M910.2,521c-40.6,21.4-81.3,42.9-121.9,64.3c0.1,0.4,0.1,0.7,0.3,0.8c40.5,21.4,81.1,42.7,121.6,64.1
		C910.2,607.1,910.2,564,910.2,521z"/>
	<path class="st0" d="M788.2,585.4c0,43.6,0,86.6,0,130.2c40.9-21.7,81.4-43.2,122.6-65C869.8,628.7,829.3,607.2,788.2,585.4z"/>
	<path class="st0" d="M655.5,639.6c40.6-21.4,81.3-42.9,121.9-64.3c-0.1-0.4-0.1-0.7-0.3-0.8c-40.5-21.4-81.1-42.7-121.6-64.1
		C655.5,553.5,655.5,596.5,655.5,639.6z"/>
	<path class="st0" d="M777.5,576.7c0-43.6,0-86.6,0-130.2c-40.9,21.7-81.4,43.2-122.6,65C695.9,533.3,736.4,554.8,777.5,576.7z"/>
</g>
</svg>
